<svg xmlns="http://www.w3.org/2000/svg" width="280" height="280" viewBox="0 0 280.00001 280.00001"><path fill="#cf4646" d="M0-.2h281.62v283.038H0z"/><g fill="#fff" stroke-miterlimit="10" stroke="#fff"><path d="M83.14 154.17c-.177.26-.495 1.078-.956 2.455-.46 1.38-1.02 3.107-1.68 5.188-.658 2.08-1.373 4.405-2.14 6.98-.77 2.572-1.56 5.198-2.37 7.876-.813 2.68-1.592 5.303-2.338 7.877-.748 2.573-1.416 4.9-2.008 6.98-.593 2.078-1.086 3.82-1.482 5.226-.395 1.403-.637 2.234-.724 2.496-.22.83-.57 1.753-1.053 2.768-.485 1.013-1.055 1.976-1.713 2.886-.66.91-1.382 1.663-2.173 2.262-.79.597-1.603.896-2.436.896-1.406 0-2.426-.468-3.062-1.403-.638-.938-.955-2.652-.955-5.148v-1.093c0-.365.022-.755.067-1.17.043-.832.373-2.394.988-4.68.614-2.29 1.35-4.875 2.206-7.76.857-2.887 1.78-5.876 2.767-8.97.988-3.094 1.876-5.862 2.667-8.308-2.328 2.602-4.85 5.188-7.572 7.76-2.723 2.575-5.51 4.89-8.363 6.942-2.855 2.056-5.73 3.732-8.627 5.03-2.897 1.3-5.686 1.95-8.363 1.95-3.073 0-5.718-.676-7.935-2.027-2.217-1.353-4.05-3.12-5.498-5.304-1.45-2.184-2.525-4.653-3.227-7.41-.703-2.755-1.054-5.51-1.054-8.266v-1.015c0-.31.02-.623.066-.935.263-4.992.976-10.113 2.14-15.365 1.163-5.252 2.688-10.478 4.577-15.677 1.886-5.198 4.07-10.282 6.55-15.248 2.48-4.965 5.18-9.658 8.1-14.078s6.025-8.488 9.317-12.207c3.292-3.717 6.672-6.915 10.14-9.593 3.468-2.677 6.97-4.77 10.503-6.278 3.533-1.507 7.035-2.26 10.502-2.26 3.994 0 7.858 1.09 11.59 3.274 3.73 2.184 7.22 5.72 10.47 10.607.744 1.092 1.217 2.197 1.414 3.314.197 1.12.296 2.17.296 3.16 0 2.338-.56 4.186-1.68 5.537-1.118 1.353-2.446 2.028-3.983 2.028-1.406 0-2.71-.74-3.92-2.223-1.207-1.483-2.557-3.6-4.05-6.357-1.404-2.496-2.952-4.302-4.64-5.42-1.69-1.118-3.524-1.677-5.5-1.677-3.073 0-6.354 1.275-9.844 3.822-3.49 2.548-6.947 5.916-10.37 10.1-3.426 4.187-6.707 8.97-9.846 14.35-3.138 5.383-5.916 10.894-8.33 16.536-2.415 5.642-4.335 11.206-5.76 16.69-1.428 5.485-2.14 10.41-2.14 14.78 0 1.455.098 2.95.295 4.483.198 1.534.57 2.926 1.12 4.173.548 1.248 1.294 2.275 2.24 3.08.943.81 2.14 1.21 3.588 1.21 1.624 0 3.468-.546 5.53-1.64 2.063-1.09 4.204-2.52 6.42-4.288 2.217-1.768 4.445-3.77 6.685-6.006 2.24-2.234 4.323-4.496 6.255-6.785 1.93-2.286 3.644-4.484 5.136-6.59 1.49-2.105 2.61-3.938 3.357-5.498l6.124-18.33c.747-1.974 1.723-3.377 2.93-4.21 1.208-.83 2.448-1.248 3.722-1.248.614 0 1.228.105 1.843.312.614.208 1.163.533 1.646.975.484.443.867 1.015 1.153 1.717.285.702.428 1.52.428 2.456 0 2.496-.22 4.836-.657 7.02-.44 2.186-1 4.316-1.68 6.396-.68 2.078-1.437 4.172-2.27 6.277-.833 2.106-1.645 4.304-2.434 6.592zM166.17 169.456c-1.932 2.6-4.18 5.134-6.748 7.604-2.568 2.47-5.214 4.667-7.935 6.59-2.723 1.924-5.4 3.47-8.033 4.64-2.634 1.17-5.004 1.756-7.11 1.756-2.108 0-3.82-.702-5.138-2.105-1.316-1.402-1.975-3.794-1.975-7.175 0-2.392.352-5.174 1.054-8.346-1.142 2.028-2.567 4.082-4.28 6.16-1.712 2.08-3.665 3.98-5.86 5.695-2.195 1.716-4.653 3.106-7.375 4.17-2.723 1.066-5.687 1.6-8.89 1.6-1.448 0-2.843-.182-4.182-.546-1.34-.364-2.513-.987-3.522-1.872-1.01-.883-1.822-2.065-2.437-3.55-.616-1.48-.923-3.34-.923-5.575 0-.052.088-.845.264-2.38.175-1.532.735-3.95 1.68-7.253.943-3.3 2.404-7.577 4.38-12.83 1.975-5.25 4.762-11.62 8.36-19.106.923-1.976 1.987-3.393 3.194-4.25 1.208-.86 2.513-1.288 3.918-1.288.615 0 1.25.092 1.91.272.66.184 1.272.468 1.844.858.57.39 1.03.885 1.383 1.48.35.6.526 1.287.526 2.068 0 .52-.066 1.015-.198 1.48-.22.887-.69 2.042-1.416 3.47-.725 1.432-1.57 3.07-2.534 4.916-.967 1.846-1.987 3.835-3.062 5.967-1.076 2.132-2.074 4.34-2.996 6.63-.922 2.288-1.712 4.614-2.37 6.98-.66 2.365-1.032 4.666-1.12 6.9 0 .937.22 1.795.66 2.574.437.78 1.16 1.172 2.172 1.172 2.853 0 5.574-.937 8.165-2.81 2.59-1.87 4.98-4.197 7.178-6.98 2.194-2.78 4.18-5.77 5.958-8.968 1.778-3.198 3.26-6.122 4.445-8.774.834-1.768 1.568-3.666 2.206-5.694.636-2.027 1.327-3.898 2.074-5.615.746-1.715 1.602-3.144 2.567-4.288.965-1.144 2.173-1.716 3.622-1.716 1.58 0 2.83.6 3.753 1.793.922 1.196 1.382 2.625 1.382 4.29 0 .936-.295 2.222-.888 3.86-.594 1.638-1.34 3.51-2.24 5.615-.9 2.105-1.876 4.354-2.93 6.746-1.053 2.394-2.03 4.824-2.93 7.293-.9 2.47-1.645 4.89-2.238 7.255s-.89 4.562-.89 6.59c0 1.872.966 2.807 2.897 2.807 1.36 0 3.05-.468 5.07-1.402 2.02-.937 4.137-2.25 6.354-3.94 2.216-1.688 4.433-3.678 6.65-5.965 2.216-2.288 4.182-4.758 5.893-7.41l.66 10.608z"/><path d="M168.213 165.554c-.483 1.197-.955 2.588-1.416 4.174-.462 1.586-.69 3.002-.69 4.25 0 .78.13 1.403.394 1.872.265.468.77.702 1.517.702.92 0 2.073-.324 3.456-.975 1.382-.65 2.874-1.51 4.478-2.574 1.604-1.064 3.272-2.287 5.005-3.666 1.733-1.377 3.457-2.808 5.17-4.29 1.712-1.482 3.346-2.963 4.905-4.444 1.558-1.483 2.952-2.848 4.182-4.095.35-.364.767-.625 1.25-.78.482-.156.9-.234 1.252-.234.877 0 1.603.364 2.173 1.093.57.728.855 1.688.855 2.886 0 1.09-.308 2.313-.92 3.665-.616 1.353-1.69 2.68-3.23 3.977-2.81 3.07-5.64 5.98-8.493 8.736-2.855 2.757-5.696 5.187-8.527 7.292-2.832 2.107-5.642 3.783-8.43 5.032-2.787 1.247-5.497 1.87-8.132 1.87-1.8 0-3.303-.285-4.51-.856-1.208-.573-2.172-1.353-2.896-2.34-.725-.988-1.24-2.157-1.548-3.51-.308-1.352-.46-2.78-.46-4.29 0-2.547.318-5.16.954-7.84.636-2.675 1.393-5.133 2.27-7.368 1.537-4.057 3.097-8.084 4.677-12.09 1.58-4.002 3.028-7.668 4.347-10.997l19.95-50.305c.79-2.028 1.854-3.458 3.194-4.29 1.34-.83 2.688-1.248 4.05-1.248 1.36 0 2.6.442 3.72 1.326 1.12.885 1.68 2.314 1.68 4.29 0 .936-.188 1.924-.56 2.963-.374 1.04-.846 2.157-1.416 3.353-1.098 2.444-2.403 5.434-3.918 8.968-1.515 3.538-3.14 7.385-4.874 11.544-1.733 4.16-3.512 8.49-5.332 12.986-1.823 4.497-3.6 8.878-5.335 13.142-1.733 4.265-3.357 8.306-4.872 12.128-1.514 3.822-2.82 7.137-3.917 9.944z"/><path d="M261.518 151.438c.615-.416 1.187-.753 1.713-1.015.527-.258 1.032-.39 1.516-.39.964 0 1.69.43 2.173 1.287.48.858.723 1.91.723 3.16 0 1.353-.295 2.728-.89 4.133-.59 1.403-1.48 2.573-2.666 3.51-4.698 4.16-8.89 7.954-12.575 11.387-3.688 3.43-7.168 6.383-10.438 8.853-3.27 2.47-6.463 4.38-9.58 5.732-3.117 1.35-6.453 2.027-10.01 2.027-3.336 0-5.915-.73-7.736-2.184-1.822-1.455-2.733-3.457-2.733-6.006v-.585c0-.18.02-.402.066-.663.175-1.56.857-3.354 2.042-5.38 1.186-2.03 2.612-4.135 4.28-6.318 1.668-2.183 3.445-4.394 5.334-6.63 1.887-2.234 3.63-4.354 5.235-6.357 1.603-2 2.93-3.834 3.983-5.5 1.055-1.662 1.58-3.013 1.58-4.054 0-.624-.22-1.117-.657-1.482-.438-.363-1.164-.545-2.173-.545-1.757 0-3.566.453-5.432 1.364-1.866.908-3.71 2.13-5.53 3.664-1.823 1.535-3.602 3.29-5.335 5.265-1.734 1.977-3.357 4.03-4.873 6.162-1.515 2.133-2.896 4.276-4.148 6.435-1.25 2.157-2.316 4.146-3.193 5.966-.262.572-.636 1.38-1.12 2.418-.482 1.04-1.01 2.21-1.578 3.51-.572 1.3-1.175 2.64-1.812 4.016-.637 1.38-1.218 2.68-1.744 3.9-.527 1.222-1 2.312-1.416 3.276-.418.96-.715 1.624-.89 1.988-.22.468-.582 1.35-1.086 2.65-.505 1.3-1.086 2.82-1.746 4.564-.657 1.74-1.35 3.574-2.073 5.498-.723 1.924-1.404 3.744-2.04 5.46l-1.68 4.523c-.483 1.298-.79 2.183-.923 2.65-.438 1.352-.955 2.625-1.547 3.822-.593 1.195-1.273 2.248-2.04 3.16-.77.907-1.648 1.636-2.635 2.183-.99.546-2.097.818-3.325.818-1.58 0-2.886-.378-3.92-1.13-1.03-.755-1.546-2.198-1.546-4.33 0-1.04.13-2.105.394-3.196.265-1.093.594-2.173.988-3.238.395-1.067.802-2.106 1.218-3.12.418-1.014.803-1.988 1.152-2.925 2.37-5.2 4.785-10.412 7.243-15.638 2.46-5.226 4.818-10.397 7.078-15.52 2.26-5.122 4.357-10.153 6.29-15.093 1.93-4.94 3.533-9.67 4.806-14.194.35-.937.833-2.262 1.448-3.98.614-1.714 1.316-3.403 2.107-5.068.79-1.663 1.68-3.106 2.666-4.327.99-1.222 2.053-1.834 3.194-1.834 1.757 0 3.03.403 3.82 1.21.79.807 1.185 1.988 1.185 3.55 0 .31-.045.806-.132 1.48-.09.676-.198 1.393-.33 2.146-.13.754-.274 1.47-.428 2.146-.154.676-.297 1.17-.43 1.48 1.625-1.768 3.38-3.522 5.27-5.264 1.887-1.74 3.84-3.316 5.86-4.72 2.02-1.402 4.083-2.546 6.19-3.432 2.107-.883 4.214-1.325 6.32-1.325 1.448 0 2.887.21 4.313.625 1.426.416 2.7 1.027 3.82 1.832 1.12.808 2.03 1.82 2.73 3.042.702 1.222 1.054 2.64 1.054 4.25 0 2.133-.537 4.407-1.612 6.825-1.076 2.417-2.426 4.848-4.05 7.29-1.625 2.446-3.38 4.824-5.268 7.138-1.89 2.314-3.654 4.42-5.3 6.317-1.647 1.898-3.03 3.51-4.15 4.835-1.118 1.327-1.7 2.224-1.744 2.69 0 .626.198 1.132.593 1.522.395.39 1.054.585 1.976.585.746 0 1.844-.417 3.293-1.25 1.447-.83 3.478-2.273 6.09-4.326 2.61-2.054 5.927-4.81 9.943-8.27 4.02-3.45 8.968-7.806 14.85-13.058z"/></g></svg>