<?xml version="1.0" encoding="UTF-8" standalone="no"?>
<!-- Generator: Adobe Illustrator 16.0.0, SVG Export Plug-In . SVG Version: 6.00 Build 0)  -->

<svg
   xmlns:dc="http://purl.org/dc/elements/1.1/"
   xmlns:cc="http://creativecommons.org/ns#"
   xmlns:rdf="http://www.w3.org/1999/02/22-rdf-syntax-ns#"
   xmlns:svg="http://www.w3.org/2000/svg"
   xmlns="http://www.w3.org/2000/svg"
   xmlns:sodipodi="http://sodipodi.sourceforge.net/DTD/sodipodi-0.dtd"
   xmlns:inkscape="http://www.inkscape.org/namespaces/inkscape"
   version="1.1"
   id="Layer_1"
   x="0px"
   y="0px"
   width="32"
   height="32"
   viewBox="0 0 32 32"
   enable-background="new 0 0 24 24"
   xml:space="preserve"
   inkscape:version="0.91 r13725"
   sodipodi:docname="mongodb.svg"><metadata
     id="metadata9"><rdf:RDF><cc:Work
         rdf:about=""><dc:format>image/svg+xml</dc:format><dc:type
           rdf:resource="http://purl.org/dc/dcmitype/StillImage" /><dc:title></dc:title></cc:Work></rdf:RDF></metadata><defs
     id="defs7" /><sodipodi:namedview
     pagecolor="#ffffff"
     bordercolor="#666666"
     borderopacity="1"
     objecttolerance="10"
     gridtolerance="10"
     guidetolerance="10"
     inkscape:pageopacity="0"
     inkscape:pageshadow="2"
     inkscape:window-width="1283"
     inkscape:window-height="480"
     id="namedview5"
     showgrid="false"
     inkscape:zoom="8"
     inkscape:cx="-11.088038"
     inkscape:cy="15.68738"
     inkscape:window-x="56"
     inkscape:window-y="107"
     inkscape:window-maximized="0"
     inkscape:current-layer="Layer_1" /><path
     d="m 16.149906,3.9375 c -0.484347,0.9302083 -1.257604,1.814616 -1.856906,2.536 -0.433508,0.426948 -2.369022,3.227965 -2.889,4.7615 -0.174,0.529 -0.31,1.07 -0.406,1.619 -0.204,1.165 -0.299,2.298 -0.233,3.479 0.036,0.652 0.15,1.295 0.32,1.927 0.617,2.296 1.873,4.199 3.588,5.817 0.318,0.301 0.662,0.574 0.996,0.86 0,-0.003 10e-4,-0.005 10e-4,-0.008 0,0.003 -10e-4,0.005 -10e-4,0.008 0.144145,0.424413 0.21204,0.883554 0.283,1.289 0.022,0.272 0.044,0.546 0.065,0.817 -0.001,0.166 -0.008,0.334 0.002,0.498 0.003,0.043 0.059,0.083 0.089,0.123 0.001,-0.001 0.002,-0.003 0.004,-0.004 0.18888,0.07321 0.403813,0.154209 0.563,0.215 C 16.33352,19.4771 16.530218,10.722953 16.149906,3.9375 Z"
     id="path3"
     inkscape:connector-curvature="0"
     style="fill:#58aa50;fill-opacity:1"
     sodipodi:nodetypes="ccccccccccccccccc" /><path
     d="m 21.600797,14.576298 c -0.053,-0.609 -0.165,-1.217 -0.32,-1.808 -0.491001,-1.864 -1.311001,-3.649 -2.467001,-5.197 -0.315,-0.422 -0.655,-0.824 -1.019,-1.205 -0.374,-0.394 -0.754844,-0.7774375 -1.016844,-1.2654375 -0.403895,-0.6860803 -0.397566,-0.6460859 -0.635781,-1.1578437 0.140278,8.3879992 0.268597,16.8529322 0.34415,23.8789762 0,0 0.09372,0.02543 0.325475,0.109305 -0.019,-0.272 -0.034,-0.5 -0.05,-0.728 -0.02691,-0.612435 0.0066,-1.160939 0.097,-1.808 0.574914,-0.994078 1.543607,-1.726714 2.265,-2.514 0.488,-0.589 0.911,-1.231 1.25,-1.921 0.827519,-2.173445 1.364598,-4.424092 1.227001,-6.384 z"
     id="path3-1"
     inkscape:connector-curvature="0"
     style="fill:#499d4a;fill-opacity:0.99215686"
     sodipodi:nodetypes="ccccccccccccc" /></svg>