<?xml version="1.0" encoding="UTF-8" standalone="no"?>
<!-- Generator: Adobe Illustrator 16.0.0, SVG Export Plug-In . SVG Version: 6.00 Build 0)  -->

<svg
   xmlns:dc="http://purl.org/dc/elements/1.1/"
   xmlns:cc="http://creativecommons.org/ns#"
   xmlns:rdf="http://www.w3.org/1999/02/22-rdf-syntax-ns#"
   xmlns:svg="http://www.w3.org/2000/svg"
   xmlns="http://www.w3.org/2000/svg"
   xmlns:sodipodi="http://sodipodi.sourceforge.net/DTD/sodipodi-0.dtd"
   xmlns:inkscape="http://www.inkscape.org/namespaces/inkscape"
   version="1.1"
   id="Layer_1"
   x="0px"
   y="0px"
   width="30"
   height="30"
   viewBox="0 0 30 30"
   enable-background="new 0 0 24 24"
   xml:space="preserve"
   inkscape:version="0.91 r13725"
   sodipodi:docname="nodejs.svg"><metadata
     id="metadata9"><rdf:RDF><cc:Work
         rdf:about=""><dc:format>image/svg+xml</dc:format><dc:type
           rdf:resource="http://purl.org/dc/dcmitype/StillImage" /><dc:title></dc:title></cc:Work></rdf:RDF></metadata><defs
     id="defs7" /><sodipodi:namedview
     pagecolor="#ffffff"
     bordercolor="#666666"
     borderopacity="1"
     objecttolerance="10"
     gridtolerance="10"
     guidetolerance="10"
     inkscape:pageopacity="0"
     inkscape:pageshadow="2"
     inkscape:window-width="1680"
     inkscape:window-height="988"
     id="namedview5"
     showgrid="false"
     inkscape:zoom="9.8333333"
     inkscape:cx="12"
     inkscape:cy="12"
     inkscape:window-x="1592"
     inkscape:window-y="142"
     inkscape:window-maximized="1"
     inkscape:current-layer="Layer_1" /><rect
     style="opacity:1;fill:#030303;fill-opacity:1;fill-rule:nonzero;stroke:none;stroke-width:2;stroke-miterlimit:4;stroke-dasharray:none;stroke-opacity:1"
     id="rect4137"
     width="29.999998"
     height="30.305084"
     x="4.8491916e-008"
     y="-0.10169503" /><path
     d="m 15.147542,26.745763 c -0.32,0 -0.64,-0.083 -0.923,-0.246 l -2.937,-1.737 c -0.438,-0.245 -0.223,-0.333 -0.079,-0.383 0.585,-0.202 0.704,-0.249 1.328,-0.604 0.066,-0.037 0.151,-0.022 0.219,0.018 l 2.256,1.339 c 0.083,0.046 0.197,0.046 0.273,0 l 8.795,-5.076 c 0.082,-0.046 0.134,-0.142 0.134,-0.237 l 0,-10.1520003 c 0,-0.1 -0.052,-0.192 -0.136,-0.243 l -8.792,-5.072 c -0.082,-0.047 -0.189,-0.047 -0.271,0 l -8.7889996,5.074 c -0.085,0.048 -0.139,0.145 -0.139,0.241 l 0,10.1510003 c 0,0.097 0.054,0.188 0.139,0.235 l 2.409,1.391 c 1.308,0.653 2.1089996,-0.116 2.1089996,-0.89 l 0,-10.022 c 0,-0.142 0.114,-0.253 0.255,-0.253 l 1.115,0 c 0.14,0 0.255,0.111 0.255,0.253 l 0,10.023 c 0,1.744 -0.95,2.746 -2.6039996,2.746 -0.508,0 -0.909,0 -2.026,-0.552 l -2.306,-1.327 c -0.57,-0.329 -0.923,-0.944 -0.923,-1.604 l 0,-10.1510003 c 0,-0.66 0.353,-1.274 0.923,-1.604 l 8.7959996,-5.082 c 0.557,-0.314 1.295,-0.314 1.849,0 l 8.794,5.082 c 0.571,0.329 0.924,0.944 0.924,1.604 l 0,10.1500003 c 0,0.66 -0.353,1.272 -0.924,1.604 l -8.794,5.077 c -0.283,0.164 -0.602,0.247 -0.927,0.247 l -0.003,0 z m 2.718,-6.993 c -3.851,0 -4.656,-1.768 -4.656,-3.249 0,-0.142 0.112,-0.253 0.252,-0.253 l 1.138,0 c 0.126,0 0.233,0.091 0.252,0.215 0.172,1.157 0.682,1.742 3.013,1.742 1.851,0 2.641,-0.42 2.641,-1.401 0,-0.567 -0.222,-0.987 -3.103,-1.27 -2.407,-0.238 -3.896,-0.77 -3.896,-2.694 0,-1.775 1.497,-2.834 4.005,-2.834 2.818,0 4.21,0.978 4.388,3.077 0.006,0.071 -0.02,0.141 -0.068,0.195 -0.048,0.051 -0.115,0.082 -0.186,0.082 l -1.143,0 c -0.118,0 -0.222,-0.084 -0.247,-0.199 -0.274,-1.219 -0.94,-1.606 -2.748,-1.606 -2.023,0 -2.258,0.703 -2.258,1.232 0,0.639 0.278,0.827 3.01,1.188 2.703,0.356 3.987,0.862 3.987,2.762 0,1.917 -1.597,3.014 -4.383,3.014 l 0.002,0 z"
     id="path3"
     inkscape:connector-curvature="0"
     style="fill:#549c46" /></svg>